<?xml version="1.0" standalone="no"?>
<!DOCTYPE svg PUBLIC "-//W3C//DTD SVG 20010904//EN"
 "http://www.w3.org/TR/2001/REC-SVG-20010904/DTD/svg10.dtd">
<svg version="1.0" xmlns="http://www.w3.org/2000/svg"
 width="2532.000000pt" height="1180.000000pt" viewBox="0 0 2532.000000 1180.000000"
 preserveAspectRatio="xMidYMid meet">

<g transform="translate(0.000000,1180.000000) scale(0.100000,-0.100000)"
fill="#000000" stroke="none">
<path d="M11885 11709 c-132 -49 -589 -219 -1015 -376 -426 -157 -845 -312
-930 -343 -85 -32 -285 -106 -445 -164 -159 -59 -331 -123 -381 -141 -96 -36
-755 -279 -1394 -515 -212 -78 -547 -202 -745 -275 -630 -233 -1446 -535
-2260 -835 -434 -160 -873 -322 -975 -360 -102 -38 -601 -222 -1110 -410 -846
-313 -1651 -610 -2357 -872 l-273 -101 0 -2091 c0 -2298 11 -3129 39 -3175 16
-25 1733 -48 6846 -92 l2409 -20 45 48 c233 250 1465 1500 1512 1534 l27 19
55 -98 c134 -239 427 -785 794 -1482 80 -151 165 -311 188 -355 104 -196 151
-285 265 -505 67 -129 153 -293 190 -365 109 -209 282 -553 325 -645 22 -47
41 -87 43 -90 1 -2 440 433 975 968 l972 972 3300 0 c3554 0 5606 11 6535 35
322 8 633 15 693 15 l107 0 0 210 0 210 -5419 0 -5420 0 -611 -612 c-595 -597
-821 -815 -950 -918 -34 -27 -64 -50 -65 -50 -2 0 -21 33 -43 73 -59 107 -311
580 -414 777 -31 58 -99 188 -153 290 -184 351 -203 386 -320 610 -65 124
-135 257 -155 295 -21 39 -136 257 -255 485 -309 589 -482 913 -501 939 -13
17 -402 -359 -1372 -1326 l-523 -523 -4430 0 -4429 0 0 2354 c0 2232 1 2354
18 2361 53 21 1168 437 1717 640 352 130 759 281 905 335 406 151 1689 626
1835 680 72 26 407 150 745 275 338 125 712 263 830 307 118 44 298 110 400
148 221 81 1726 637 1855 685 99 37 733 271 1890 697 1202 442 1607 585 1805
636 l75 20 120 -43 c311 -111 1530 -596 3285 -1307 354 -143 670 -272 2100
-855 223 -91 558 -228 745 -305 187 -76 500 -205 695 -285 1420 -582 2003
-835 1970 -853 -22 -12 -400 -91 -1460 -306 -366 -74 -750 -153 -855 -174
-394 -80 -631 -131 -650 -139 -46 -19 750 -25 3635 -25 2801 -1 3338 3 3299
24 -18 10 -386 140 -719 255 -297 102 -880 302 -1140 390 -151 51 -509 173
-795 270 -593 201 -1024 348 -1302 442 l-193 65 0 1064 0 1064 -845 0 -845 0
0 -776 c0 -735 -1 -776 -17 -769 -18 7 -253 87 -703 240 -135 46 -324 110
-420 143 -248 85 -583 200 -805 275 -104 36 -278 95 -385 132 -107 37 -278 95
-380 130 -327 112 -538 184 -845 290 -165 57 -374 129 -465 160 -91 31 -367
127 -615 212 -247 85 -526 181 -620 213 -93 32 -294 101 -445 153 -1004 346
-1533 527 -1543 526 -7 0 -120 -41 -252 -90z"/>
<path d="M13410 6560 c-33 -7 -32 -7 15 -8 28 0 59 3 70 8 16 7 13 8 -15 8
-19 0 -51 -4 -70 -8z"/>
<path d="M7690 6336 c19 -7 43 -17 53 -21 24 -10 22 12 -2 25 -11 5 -35 10
-53 10 l-33 -1 35 -13z"/>
<path d="M7332 5785 c0 -16 2 -22 5 -12 2 9 2 23 0 30 -3 6 -5 -1 -5 -18z"/>
<path d="M4670 4270 c0 -5 4 -10 9 -10 6 0 13 5 16 10 3 6 -1 10 -9 10 -9 0
-16 -4 -16 -10z"/>
<path d="M9192 4230 c-13 -21 -6 -26 15 -12 7 4 9 13 5 19 -6 9 -11 6 -20 -7z"/>
<path d="M9521 3403 c-19 -13 -27 -23 -19 -23 17 0 66 36 58 43 -3 2 -20 -7
-39 -20z"/>
<path d="M18180 2520 l-55 -30 58 0 c57 0 57 0 57 30 0 17 -1 30 -2 30 -2 -1
-28 -14 -58 -30z"/>
<path d="M17650 2500 c0 -5 10 -10 23 -10 18 0 19 2 7 10 -19 13 -30 13 -30 0z"/>
</g>
</svg>
